<svg xmlns="http://www.w3.org/2000/svg" version="1.1" xmlns:xlink="http://www.w3.org/1999/xlink" xmlns:svgjs="http://svgjs.com/svgjs" width="1440" height="560" preserveAspectRatio="none" viewBox="0 0 1440 560"><g mask="url(&quot;#SvgjsMask1003&quot;)" fill="none"><rect width="1440" height="560" x="0" y="0" fill="url(#SvgjsLinearGradient1004)"></rect><path d="M1512 560L0 560 L0 350.18Q73.21 303.39, 120 376.61Q146.6 283.21, 240 309.81Q311.8 261.61, 360 333.41Q370.47 271.88, 432 282.35Q507.03 237.38, 552 312.42Q634.01 274.44, 672 356.45Q740.41 304.86, 792 373.27Q825.73 287, 912 320.73Q953.21 289.94, 984 331.15Q1033 260.14, 1104 309.14Q1151.17 236.31, 1224 283.49Q1267.16 254.65, 1296 297.81Q1340.07 269.88, 1368 313.95Q1421.63 295.57, 1440 349.2Q1449.74 286.94, 1512 296.67z" fill="#182f5d"></path><path d="M1488 560L0 560 L0 404.61Q56.35 340.96, 120 397.3Q160.88 318.18, 240 359.05Q284.81 331.87, 312 376.68Q382.52 327.2, 432 397.72Q469.67 315.39, 552 353.06Q625.34 306.4, 672 379.74Q719.74 355.48, 744 403.22Q798.89 338.12, 864 393.01Q906.14 315.15, 984 357.3Q1029.54 330.84, 1056 376.37Q1103.95 352.32, 1128 400.27Q1164.06 316.33, 1248 352.39Q1319.69 304.08, 1368 375.78Q1439.13 326.91, 1488 398.04z" fill="#25467d"></path><path d="M1560 560L0 560 L0 503.58Q32.37 415.95, 120 448.32Q142.87 399.19, 192 422.05Q276.44 386.49, 312 470.93Q363.88 402.81, 432 454.68Q507.01 409.69, 552 484.71Q591.45 404.16, 672 443.61Q720.95 420.56, 744 469.51Q813.95 419.46, 864 489.41Q908.94 462.35, 936 507.29Q970.66 421.95, 1056 456.6Q1123.35 403.95, 1176 471.3Q1194.6 417.9, 1248 436.5Q1290.16 406.66, 1320 448.82Q1393.24 402.06, 1440 475.31Q1473.28 388.59, 1560 421.86z" fill="#356cb1"></path><path d="M1536 560L0 560 L0 536.57Q45.23 509.8, 72 555.03Q81.86 492.89, 144 502.75Q185.58 472.33, 216 513.92Q300.58 478.5, 336 563.08Q360.35 515.43, 408 539.78Q457.32 469.1, 528 518.41Q615.66 486.07, 648 573.72Q696.44 502.16, 768 550.61Q780.45 491.06, 840 503.5Q882.79 474.29, 912 517.07Q979.31 464.38, 1032 531.69Q1116.89 496.59, 1152 581.48Q1193.01 502.49, 1272 543.5Q1317.26 516.75, 1344 562.01Q1388.63 534.63, 1416 579.26Q1458.85 502.11, 1536 544.96z" fill="white"></path></g><defs><mask id="SvgjsMask1003"><rect width="1440" height="560" fill="#ffffff"></rect></mask><linearGradient x1="15.28%" y1="-39.29%" x2="84.72%" y2="139.29%" gradientUnits="userSpaceOnUse" id="SvgjsLinearGradient1004"><stop stop-color="#0e2a47" offset="0"></stop><stop stop-color="#00459e" offset="1"></stop></linearGradient></defs></svg>