<?xml version="1.0" standalone="no"?>
<!DOCTYPE svg PUBLIC "-//W3C//DTD SVG 20010904//EN"
 "http://www.w3.org/TR/2001/REC-SVG-20010904/DTD/svg10.dtd">
<svg version="1.0" xmlns="http://www.w3.org/2000/svg"
 width="225.000000pt" height="225.000000pt" viewBox="0 0 225.000000 225.000000"
 preserveAspectRatio="xMidYMid meet">

<g transform="translate(0.000000,225.000000) scale(0.100000,-0.100000)"
fill="#000000" stroke="none">
<path d="M1205 2226 c-14 -14 -25 -32 -25 -41 0 -22 45 -65 68 -65 43 0 202
-54 287 -97 50 -24 120 -67 156 -94 82 -60 212 -195 262 -272 62 -93 126 -239
152 -344 13 -53 31 -103 39 -111 22 -22 67 -18 88 8 20 25 20 29 -9 150 -94
392 -431 740 -827 854 -138 40 -161 42 -191 12z"/>
<path d="M355 2105 c-54 -21 -277 -242 -312 -309 -36 -70 -47 -159 -33 -262
54 -406 435 -944 884 -1248 304 -205 631 -317 807 -276 89 21 143 57 259 176
119 122 150 172 150 244 0 79 -30 124 -193 288 -160 162 -206 197 -274 208
-76 12 -130 -16 -242 -122 l-100 -95 -48 25 c-158 79 -405 324 -517 510 l-36
59 99 102 c86 88 102 110 116 157 17 59 12 107 -16 160 -24 46 -332 353 -375
373 -51 24 -119 28 -169 10z m239 -238 c192 -196 206 -213 206 -247 0 -26 -19
-51 -115 -150 -92 -95 -115 -124 -115 -147 0 -42 58 -156 130 -253 80 -109
284 -310 380 -376 121 -83 210 -126 244 -120 20 4 67 43 142 116 157 153 142
155 342 -42 164 -162 189 -198 171 -245 -17 -46 -216 -240 -266 -259 -136 -52
-429 39 -711 222 -386 250 -722 675 -844 1066 -28 90 -32 256 -8 300 18 31
193 215 230 240 14 10 40 18 59 18 30 0 47 -14 155 -123z"/>
<path d="M1181 1815 c-22 -29 -21 -58 3 -82 6 -6 40 -18 75 -27 112 -28 188
-73 277 -161 90 -88 140 -174 169 -286 9 -35 21 -70 27 -76 17 -20 73 -16 93
7 17 19 18 26 6 83 -29 141 -101 267 -215 375 -106 100 -244 172 -363 188 -46
6 -51 4 -72 -21z"/>
</g>
</svg>
