<?xml version="1.0" standalone="no"?>
<!DOCTYPE svg PUBLIC "-//W3C//DTD SVG 20010904//EN"
 "http://www.w3.org/TR/2001/REC-SVG-20010904/DTD/svg10.dtd">
<svg version="1.0" xmlns="http://www.w3.org/2000/svg"
 width="981.000000pt" height="980.000000pt" viewBox="0 0 981.000000 980.000000"
 preserveAspectRatio="xMidYMid meet">

<g transform="translate(0.000000,980.000000) scale(0.100000,-0.100000)"
fill="#000000" stroke="none">
<path d="M4740 9325 l0 -475 475 0 475 0 0 160 0 160 265 0 c146 0 265 -3 265
-7 -1 -5 -28 -28 -62 -53 -83 -62 -312 -291 -391 -392 -216 -277 -343 -611
-388 -1015 l-12 -113 -1581 -1 c-870 0 -1888 -4 -2263 -8 l-682 -8 -58 -28
c-68 -34 -216 -175 -257 -247 -20 -34 -30 -70 -36 -130 -5 -46 -13 -520 -16
-1053 l-7 -971 -85 34 c-147 59 -237 38 -314 -74 -42 -62 -50 -106 -59 -339
-11 -287 -10 -3618 0 -4066 l9 -347 28 -53 c40 -75 186 -219 258 -254 l57 -28
527 -9 c726 -13 4293 -4 4390 11 86 13 161 50 203 101 89 107 51 232 -128 422
l-77 83 1940 6 c1066 3 2002 9 2079 13 126 7 146 10 201 37 72 34 183 138 240
224 l39 58 7 156 c13 289 20 4323 10 5232 -10 862 -11 876 -32 921 -44 95
-188 236 -283 278 -51 23 -154 40 -243 40 l-62 0 -7 73 c-27 298 -86 519 -196
739 -53 106 -155 262 -228 348 -81 96 -243 260 -331 333 -47 39 -89 75 -95 79
-5 4 113 8 263 8 l272 0 0 -160 0 -160 475 0 475 0 0 475 0 475 -475 0 -475 0
0 -160 0 -160 -1580 0 -1580 0 0 160 0 160 -475 0 -475 0 0 -475z m630 0 l0
-155 -155 0 -155 0 0 155 0 155 155 0 155 0 0 -155z m4110 0 l0 -155 -155 0
-155 0 0 155 0 155 155 0 155 0 0 -155z m-1915 -186 c284 -36 596 -199 826
-431 232 -234 390 -545 440 -863 19 -119 16 -400 -4 -515 -89 -491 -372 -885
-814 -1132 l-112 -63 -1 -142 0 -143 -235 0 -235 0 0 563 0 562 95 49 c167 87
279 213 338 385 52 149 41 282 -35 438 -71 146 -217 277 -374 335 -86 32 -283
32 -368 1 -268 -100 -465 -385 -441 -638 20 -215 161 -414 367 -520 l98 -50 0
-562 0 -563 -235 0 -235 0 0 143 0 142 -73 39 c-325 176 -557 406 -705 701
-61 121 -116 276 -137 387 -22 117 -30 396 -16 551 58 632 601 1210 1251 1331
97 18 447 15 605 -5z m-147 -1264 c60 -24 128 -104 148 -173 22 -75 15 -200
-15 -268 -48 -107 -113 -146 -253 -152 -130 -6 -195 14 -260 79 -62 62 -83
129 -76 248 3 48 12 102 20 122 31 73 109 138 193 160 47 13 196 3 243 -16z
m-3227 -612 l1206 -6 36 -134 c61 -226 159 -428 319 -657 50 -73 74 -114 67
-121 -18 -18 -614 -23 -2827 -24 l-2203 -1 3 428 c3 380 5 430 20 458 10 17
25 35 35 39 10 5 83 11 163 15 205 9 1761 11 3181 3z m5208 -6 c19 -7 44 -25
55 -40 20 -28 21 -40 24 -464 l3 -435 -380 4 c-209 1 -383 7 -387 11 -10 9 -7
15 104 179 145 214 230 403 307 681 11 42 22 60 38 67 32 13 196 11 236 -3z
m-3230 -1265 c88 -8 96 -11 123 -41 24 -27 28 -40 28 -89 0 -64 -17 -105 -79
-202 -81 -125 -91 -239 -32 -366 17 -36 31 -72 31 -79 0 -7 -11 -35 -26 -62
-32 -63 -48 -169 -35 -239 21 -112 82 -194 208 -278 l68 -46 735 0 c459 0 767
4 820 11 103 13 154 34 215 90 142 131 179 288 105 448 -37 79 -38 61 14 206
46 126 32 201 -62 343 -54 80 -57 88 -60 157 -5 86 6 111 56 132 52 22 296 32
790 32 l413 1 -3 -2472 c-3 -1953 -6 -2481 -16 -2510 -7 -21 -23 -43 -34 -49
-45 -24 -366 -28 -2413 -28 l-2100 0 -1000 942 -999 942 1149 6 c633 3 1151 6
1153 7 1 1 2 641 2 1422 l0 1420 -2055 0 -2055 0 0 -571 c0 -337 -4 -569 -9
-567 -5 2 -77 65 -160 141 l-151 139 0 590 0 591 2643 -7 c1453 -3 2684 -9
2736 -14z m1619 -469 l262 -6 0 -69 0 -68 -779 0 -778 0 -7 31 c-16 81 -3 98
82 109 74 10 883 12 1220 3z m-2888 -1258 l0 -1105 -1162 0 -1163 1 -141 132
c-77 72 -337 316 -577 541 l-437 408 0 564 0 564 1740 0 1740 0 0 -1105z
m2742 785 l408 0 0 -70 0 -70 -779 0 -778 0 -7 31 c-11 56 -7 78 17 91 31 17
243 27 506 22 123 -2 408 -4 633 -4z m-6593 -890 c312 -294 823 -776 1136
-1070 2197 -2064 2925 -2752 2925 -2764 0 -9 -4491 -6 -4619 3 -103 8 -115 11
-140 35 -25 25 -26 32 -29 146 l-4 120 156 0 156 0 0 160 0 160 -155 0 -155 0
0 155 0 155 155 0 155 0 0 160 0 160 -155 0 -155 0 0 160 0 160 155 0 155 0 0
155 0 155 -155 0 -155 0 0 160 0 160 155 0 155 0 0 155 0 155 -155 0 -155 0 0
160 0 160 155 0 155 0 0 160 0 160 -155 0 -155 0 0 155 0 155 155 0 155 0 0
160 0 160 -155 0 -155 0 0 366 0 366 82 -73 c45 -41 336 -315 647 -609z"/>
<path d="M1189 6929 c-73 -43 -96 -139 -51 -211 78 -127 271 -66 274 87 2 109
-128 181 -223 124z"/>
<path d="M1835 6936 c-55 -25 -78 -60 -82 -124 -3 -45 0 -64 16 -90 57 -90
190 -98 249 -15 45 64 36 146 -22 202 -28 27 -45 35 -83 38 -28 2 -61 -3 -78
-11z"/>
<path d="M2460 6931 c-49 -26 -72 -62 -77 -118 -8 -91 56 -163 145 -163 60 0
105 29 133 86 38 81 13 160 -64 195 -53 24 -93 24 -137 0z"/>
<path d="M5530 3950 l0 -160 1818 2 1817 3 3 158 3 157 -1821 0 -1820 0 0
-160z"/>
<path d="M5530 3320 l0 -160 1820 0 1821 0 -3 158 -3 157 -1817 3 -1818 2 0
-160z"/>
<path d="M5537 2843 c-4 -3 -7 -75 -7 -160 l0 -153 1820 0 1821 0 -3 158 -3
157 -1811 3 c-996 1 -1814 -1 -1817 -5z"/>
<path d="M5530 2055 l0 -155 1820 0 1820 0 0 155 0 155 -1820 0 -1820 0 0
-155z"/>
<path d="M1116 2943 c-3 -21 -6 -442 -6 -935 l0 -898 1000 0 c607 0 1000 4
1000 9 0 20 -1947 1853 -1974 1859 -8 2 -16 -11 -20 -35z m718 -1039 c197
-186 390 -369 429 -405 l71 -66 -138 -6 c-77 -4 -282 -7 -458 -7 l-318 0 0
437 0 437 28 -25 c15 -14 188 -178 386 -365z"/>
</g>
</svg>
