<?xml version="1.0" standalone="no"?>
<!DOCTYPE svg PUBLIC "-//W3C//DTD SVG 20010904//EN"
 "http://www.w3.org/TR/2001/REC-SVG-20010904/DTD/svg10.dtd">
<svg version="1.0" xmlns="http://www.w3.org/2000/svg"
 width="980.000000pt" height="958.000000pt" viewBox="0 0 980.000000 958.000000"
 preserveAspectRatio="xMidYMid meet">

<g transform="translate(0.000000,958.000000) scale(0.100000,-0.100000)"
fill="#000000" stroke="none">
<path d="M1818 8868 c-371 -387 -932 -971 -1246 -1298 l-571 -595 -1 -3313 0
-3312 41 -83 c23 -45 54 -98 70 -118 39 -50 151 -107 236 -121 48 -7 1057 -12
3396 -15 l3327 -4 80 42 c136 70 223 183 241 312 5 34 12 634 16 1332 l6 1270
256 190 c515 382 1051 806 1051 830 0 13 -50 80 -265 355 -246 315 -438 552
-452 557 -12 5 -66 -35 -428 -321 -146 -116 -149 -118 -156 -93 -4 14 -10
1096 -14 2404 l-7 2378 -40 67 c-54 92 -105 140 -203 193 l-82 45 -2290 0
-2291 0 -674 -702z m5255 352 l37 -49 0 -2493 -1 -2493 -212 -177 c-1114 -928
-1966 -1840 -2013 -2155 -12 -81 29 -163 100 -200 95 -50 300 9 671 192 386
190 821 456 1323 807 63 44 117 77 120 73 11 -10 14 -2146 3 -2246 -7 -72 -14
-97 -36 -129 l-28 -40 -3226 1 c-1774 0 -3277 4 -3339 8 -155 11 -152 8 -163
187 -4 77 -8 1533 -9 3237 l0 3097 588 1 c979 1 1541 12 1582 31 45 20 109 84
128 128 24 58 31 340 32 1338 l0 932 2203 0 2203 0 37 -50z"/>
<path d="M4049 8491 c-113 -13 -215 -92 -273 -211 l-31 -65 -3 -1083 -3 -1082
40 -68 c52 -87 98 -131 191 -181 l75 -41 800 1 c935 0 1070 5 1138 38 74 36
142 104 179 179 l33 67 0 1106 0 1105 -29 44 c-43 65 -102 125 -159 162 l-52
33 -920 2 c-506 0 -950 -2 -986 -6z m1848 -293 l53 -52 -1 -796 c0 -865 -8
-1222 -27 -1257 -7 -13 -22 -28 -35 -35 -31 -17 -765 -28 -1343 -19 -527 7
-506 4 -521 88 -11 63 -10 1898 0 1986 6 48 15 76 32 95 l23 27 389 5 c213 3
611 7 883 8 l494 2 53 -52z"/>
<path d="M4870 8116 c-70 -15 -114 -42 -176 -108 -68 -72 -90 -112 -105 -186
-23 -121 27 -290 110 -365 89 -80 210 -124 311 -113 213 24 392 259 351 463
-46 232 -251 361 -491 309z"/>
<path d="M4491 7330 c-60 -13 -133 -62 -159 -109 -15 -27 -22 -56 -22 -95 0
-106 130 -817 166 -906 31 -77 93 -95 359 -105 212 -8 479 7 548 31 83 28 87
39 147 334 52 258 90 503 97 620 l6 95 -35 45 c-45 60 -113 87 -240 96 l-95 7
-143 -172 c-102 -121 -147 -168 -154 -161 -6 6 -63 72 -126 147 -63 75 -127
145 -142 156 -31 23 -137 31 -207 17z"/>
<path d="M1265 5211 l-70 -6 -3 -137 -3 -138 2506 0 2505 0 0 145 0 145 -2432
-2 c-1338 -1 -2464 -4 -2503 -7z"/>
<path d="M1190 3300 l0 -150 2025 0 2026 0 -3 148 -3 147 -2022 3 -2023 2 0
-150z"/>
<path d="M1423 1681 c-131 -4 -216 -10 -223 -17 -7 -7 -10 -58 -8 -145 l3
-134 1553 -3 1552 -2 0 78 c0 44 3 113 6 155 l7 77 -1339 -2 c-736 -1 -1434
-4 -1551 -7z"/>
<path d="M9228 5670 c-155 -26 -377 -145 -714 -381 -179 -125 -380 -275 -389
-289 -3 -4 45 -73 107 -152 180 -230 584 -731 605 -751 19 -16 21 -16 61 10
124 84 559 490 717 670 112 128 171 255 182 393 15 196 -83 368 -257 453 -103
50 -202 65 -312 47z"/>
<path d="M9472 4435 c-81 -35 -261 -172 -957 -725 -521 -414 -633 -507 -652
-543 -23 -44 -21 -111 4 -145 11 -15 38 -33 60 -41 37 -13 43 -13 97 12 55 26
104 62 521 391 847 669 1056 839 1075 876 22 44 26 126 7 151 -30 40 -95 50
-155 24z"/>
</g>
</svg>
