<svg xmlns="http://www.w3.org/2000/svg" version="1.1" xmlns:xlink="http://www.w3.org/1999/xlink" xmlns:svgjs="http://svgjs.com/svgjs" width="1440" height="560" preserveAspectRatio="none" viewBox="0 0 1440 560"><g mask="url(&quot;#SvgjsMask1033&quot;)" fill="none"><rect width="1440" height="560" x="0" y="0" fill="url(#SvgjsLinearGradient1034)"></rect><path d="M -633.6363310553838,83 C -537.64,123.8 -345.64,251.4 -153.6363310553839,287 C 38.36,322.6 134.36,254.8 326.3636689446161,261 C 518.36,267.2 614.36,331.8 806.3636689446162,318 C 998.36,304.2 1159.64,166.8 1286.3636689446162,192 C 1413.09,217.2 1409.27,393.6 1440,444" stroke="rgba(51, 121, 194, 0.58)" stroke-width="2"></path><path d="M -593.2743248455455,376 C -497.27,325.8 -305.27,143.8 -113.27432484554546,125 C 78.73,106.2 174.73,255.6 366.7256751544545,282 C 558.73,308.4 654.73,244.4 846.7256751544545,257 C 1038.73,269.6 1208.07,351.6 1326.7256751544546,345 C 1445.38,338.4 1417.35,248.2 1440,224" stroke="rgba(51, 121, 194, 0.58)" stroke-width="2"></path><path d="M -25.50140882592433,465 C 70.5,404.8 262.5,175.4 454.49859117407567,164 C 646.5,152.6 742.5,421.8 934.4985911740757,408 C 1126.5,394.2 1222.5,101.2 1414.4985911740757,95 C 1606.5,88.8 1889.4,348.8 1894.4985911740757,377 C 1899.6,405.2 1530.9,264.2 1440,236" stroke="rgba(51, 121, 194, 0.58)" stroke-width="2"></path><path d="M -608.3488660838088,450 C -512.35,377.4 -320.35,77.4 -128.34886608380884,87 C 63.65,96.6 159.65,460.4 351.65113391619116,498 C 543.65,535.6 639.65,285 831.6511339161912,275 C 1023.65,265 1189.98,456.6 1311.6511339161912,448 C 1433.32,439.4 1414.33,275.2 1440,232" stroke="rgba(51, 121, 194, 0.58)" stroke-width="2"></path></g><defs><mask id="SvgjsMask1033"><rect width="1440" height="560" fill="#ffffff"></rect></mask><linearGradient x1="84.72%" y1="-39.29%" x2="15.28%" y2="139.29%" gradientUnits="userSpaceOnUse" id="SvgjsLinearGradient1034"><stop stop-color="#0e2a47" offset="0"></stop><stop stop-color="#00459e" offset="1"></stop></linearGradient></defs></svg>